<svg width="27" height="28" viewBox="0 0 27 28" fill="none" xmlns="http://www.w3.org/2000/svg">
<path d="M25.3341 10.1662H25.3339H24.0006H23.5005V10.6663V20.2455V20.5995L23.8344 20.7171C24.5148 20.9568 25.1042 21.4011 25.5219 21.9892C25.9395 22.5771 26.1649 23.2798 26.1673 24.0008C26.1673 24.001 26.1673 24.0012 26.1673 24.0014L26.1673 26.6666V26.6668C26.1673 26.7762 26.1458 26.8846 26.1039 26.9857C26.062 27.0868 26.0007 27.1786 25.9233 27.256L26.2769 27.6096L25.9233 27.256C25.8459 27.3334 25.7541 27.3948 25.653 27.4366C25.5518 27.4785 25.4435 27.5 25.3341 27.5H25.3339H1.33336H1.33323C1.22381 27.5 1.11545 27.4785 1.01434 27.4366C0.913234 27.3948 0.82137 27.3334 0.743995 27.256L0.390837 27.6092L0.743992 27.256C0.666616 27.1786 0.605243 27.0868 0.56338 26.9857L0.102043 27.1767L0.563379 26.9857C0.521516 26.8846 0.499983 26.7762 0.500012 26.6668V26.6666V24.0007C0.502384 23.2797 0.727803 22.577 1.14535 21.9892C1.56304 21.4011 2.15252 20.9568 2.83285 20.7171L3.16674 20.5995V20.2455V10.6663V10.1662H2.66673H1.33336H1.33323C1.22381 10.1663 1.11544 10.1447 1.01434 10.1029L0.823054 10.5649L1.01434 10.1029C0.913237 10.061 0.821372 9.99965 0.743993 9.92227C0.666616 9.84489 0.605243 9.75303 0.563379 9.65192C0.521516 9.55082 0.499983 9.44245 0.500012 9.33303V9.3329L0.500012 5.3328L0.500012 5.3326C0.49994 5.15786 0.554896 4.98753 0.657083 4.84578C0.75927 4.70403 0.903499 4.59806 1.06931 4.5429L1.06959 4.54281L13.0696 0.542788C13.241 0.485753 13.4263 0.485753 13.5976 0.542788L25.5977 4.54281L25.598 4.5429C25.7638 4.59806 25.908 4.70403 26.0102 4.84578L26.4158 4.55338L26.0102 4.84578C26.1124 4.98753 26.1673 5.15786 26.1673 5.3326V5.3328V9.3329V9.33303C26.1673 9.44245 26.1458 9.55081 26.1039 9.65192C26.062 9.75303 26.0007 9.84489 25.9233 9.92227L26.2769 10.2758L25.9233 9.92227C25.8459 9.99965 25.7541 10.061 25.653 10.1029L25.8442 10.5649L25.6529 10.1029C25.5518 10.1447 25.4435 10.1663 25.3341 10.1662ZM24.0006 25.8333H24.5006V25.3333V23.9999V23.9994C24.5001 23.5134 24.3068 23.0475 23.9632 22.7039C23.6196 22.3603 23.1537 22.167 22.6677 22.1665H22.6672H4.00009H3.99959C3.51363 22.167 3.04772 22.3603 2.70409 22.7039C2.36046 23.0475 2.1672 23.5134 2.16672 23.9994V23.9999V25.3333V25.8333H2.66673H24.0006ZM4.83345 19.9998V20.4998H5.33346H8.00019H8.5002V19.9998V10.6663V10.1662H8.00019H5.33346H4.83345V10.6663V19.9998ZM10.1669 19.9998V20.4998H10.6669H16.0004H16.5004V19.9998V10.6663V10.1662H16.0004H10.6669H10.1669V10.6663V19.9998ZM18.1671 19.9998V20.4998H18.6671H21.3338H21.8338V19.9998V10.6663V10.1662H21.3338H18.6671H18.1671V10.6663V19.9998ZM2.16672 7.99953V8.49954H2.66673H24.0006H24.5006V7.99953V6.29376V5.93339L24.1587 5.81941L13.4918 2.26333L13.3336 2.21061L13.1755 2.26333L2.50859 5.81941L2.16672 5.93339V6.29376V7.99953Z" fill="#73798C" stroke="#73798C"/>
</svg>
