<svg width="9" height="6" viewBox="0 0 9 6" fill="none" xmlns="http://www.w3.org/2000/svg">
<path d="M4.00361 0.21677L0.199176 4.02794C0.136064 4.09054 0.0859707 4.16501 0.0517855 4.24707C0.0176004 4.32912 -3.3342e-08 4.41713 -2.94565e-08 4.50602C-2.55709e-08 4.59491 0.0176004 4.68292 0.0517856 4.76498C0.0859708 4.84703 0.136064 4.9215 0.199176 4.9841C0.325337 5.10951 0.495999 5.17991 0.673889 5.17991C0.851779 5.17991 1.02244 5.10951 1.1486 4.9841L4.51536 1.65101L7.84845 4.9841C7.97462 5.10951 8.14528 5.17991 8.32317 5.17991C8.50106 5.17991 8.67172 5.10951 8.79788 4.9841C8.8615 4.92174 8.91212 4.84737 8.9468 4.76531C8.98147 4.68324 8.99952 4.59511 8.99989 4.50602C8.99952 4.41693 8.98147 4.3288 8.9468 4.24674C8.91212 4.16467 8.8615 4.0903 8.79788 4.02794L4.99344 0.21677C4.93039 0.148421 4.85386 0.093874 4.76868 0.0565654C4.6835 0.0192568 4.59152 -4.53527e-06 4.49853 -4.53121e-06C4.40554 -4.52714e-06 4.31355 0.0192569 4.22838 0.0565655C4.1432 0.0938741 4.06667 0.148421 4.00361 0.21677Z" fill="#73798C"/>
</svg>
