<svg width="9" height="6" viewBox="0 0 9 6" fill="none" xmlns="http://www.w3.org/2000/svg">
<path d="M4.99638 4.96314L8.80082 1.15197C8.86394 1.08937 8.91403 1.0149 8.94821 0.932841C8.9824 0.850787 9 0.762776 9 0.673886C9 0.584995 8.9824 0.496984 8.94821 0.41493C8.91403 0.332876 8.86394 0.258402 8.80082 0.195806C8.67466 0.0703932 8.504 -2.16808e-08 8.32611 -2.94566e-08C8.14822 -3.72325e-08 7.97756 0.0703932 7.8514 0.195806L4.48464 3.5289L1.15155 0.195805C1.02538 0.0703929 0.854722 -3.56041e-07 0.676832 -3.63817e-07C0.498943 -3.71593e-07 0.32828 0.0703929 0.202119 0.195805C0.138495 0.258168 0.0878791 0.332536 0.0532035 0.414601C0.0185288 0.496666 0.00048352 0.584796 0.000113633 0.673885C0.000483512 0.762974 0.0185288 0.851104 0.0532034 0.933169C0.087879 1.01523 0.138495 1.0896 0.202119 1.15197L4.00656 4.96314C4.06961 5.03149 4.14614 5.08603 4.23132 5.12334C4.3165 5.16065 4.40848 5.17991 4.50147 5.17991C4.59446 5.17991 4.68645 5.16065 4.77162 5.12334C4.8568 5.08603 4.93333 5.03149 4.99638 4.96314Z" fill="#73798C"/>
</svg>
