<svg width="8" height="14" viewBox="0 0 8 14" fill="none" xmlns="http://www.w3.org/2000/svg">
<path d="M7.66531 6.18337L1.77915 0.307617C1.68247 0.210144 1.56745 0.132777 1.44072 0.0799801C1.314 0.0271829 1.17807 0 1.04078 0C0.903494 0 0.767566 0.0271829 0.640838 0.0799801C0.514109 0.132777 0.399089 0.210144 0.302412 0.307617C0.108719 0.502466 0 0.766045 0 1.04079C0 1.31553 0.108719 1.57911 0.302412 1.77396L5.4502 6.97374L0.302412 12.1215C0.108719 12.3164 0 12.58 0 12.8547C0 13.1294 0.108719 13.393 0.302412 13.5879C0.398727 13.6861 0.513585 13.7643 0.64033 13.8179C0.767075 13.8714 0.903187 13.8993 1.04078 13.8999C1.17837 13.8993 1.31449 13.8714 1.44123 13.8179C1.56798 13.7643 1.68284 13.6861 1.77915 13.5879L7.66531 7.71211C7.77087 7.61473 7.85511 7.49653 7.91273 7.36498C7.97035 7.23343 8.0001 7.09136 8.0001 6.94774C8.0001 6.80412 7.97035 6.66206 7.91273 6.5305C7.85511 6.39895 7.77087 6.28076 7.66531 6.18337Z" fill="#0E0F12"/>
</svg>
