<svg width="10" height="8" viewBox="0 0 10 8" fill="none" xmlns="http://www.w3.org/2000/svg">
<path d="M9.77078 0.210472C9.70464 0.14378 9.62594 0.0908459 9.53923 0.054722C9.45253 0.0185982 9.35952 0 9.26559 0C9.17166 0 9.07866 0.0185982 8.99195 0.054722C8.90524 0.0908459 8.82655 0.14378 8.7604 0.210472L3.45944 5.51855L1.23233 3.28432C1.16365 3.21797 1.08258 3.16581 0.993737 3.1308C0.904898 3.09579 0.810033 3.07862 0.714558 3.08027C0.619084 3.08192 0.524869 3.10236 0.437294 3.14042C0.349719 3.17849 0.270499 3.23343 0.204156 3.3021C0.137813 3.37078 0.0856477 3.45186 0.0506372 3.5407C0.0156267 3.62954 -0.001543 3.7244 0.000108807 3.81987C0.00176062 3.91535 0.0222016 4.00956 0.0602642 4.09714C0.0983268 4.18471 0.153266 4.26393 0.221945 4.33028L2.95425 7.06258C3.0204 7.12927 3.09909 7.18221 3.1858 7.21833C3.27251 7.25446 3.36551 7.27305 3.45944 7.27305C3.55337 7.27305 3.64638 7.25446 3.73308 7.21833C3.81979 7.18221 3.89849 7.12927 3.96464 7.06258L9.77078 1.25643C9.84301 1.1898 9.90065 1.10894 9.94007 1.01893C9.9795 0.928917 9.99985 0.831717 9.99985 0.733452C9.99985 0.635188 9.9795 0.537988 9.94007 0.447979C9.90065 0.357969 9.84301 0.277102 9.77078 0.210472Z" fill="white"/>
</svg>
