<svg width="27" height="27" viewBox="0 0 27 27" fill="none" xmlns="http://www.w3.org/2000/svg">
<path d="M22.9499 0H4.04999C1.75499 0 0 1.75499 0 4.04999V22.9499C0 25.2449 1.75499 26.9999 4.04999 26.9999H22.9499C25.2449 26.9999 26.9999 25.2449 26.9999 22.9499V4.04999C26.9999 1.75499 25.2449 0 22.9499 0ZM13.5 5.39998C15.525 5.39998 17.2799 7.01998 17.2799 9.17997C17.2799 11.34 15.66 12.96 13.5 12.96C11.34 12.96 9.71997 11.34 9.71997 9.17997C9.71997 7.01998 11.475 5.39998 13.5 5.39998ZM19.7099 21.4649C19.5749 21.4649 19.4399 21.5999 19.1699 21.5999H7.69498C6.88498 21.5999 6.34498 20.9249 6.34498 20.2499C6.34498 20.1149 6.34498 19.9799 6.47998 19.7099C7.96498 15.795 12.285 13.905 16.2 15.39C18.2249 16.2 19.7099 17.6849 20.5199 19.7099C20.7899 20.5199 20.3849 21.1949 19.7099 21.4649Z" fill="#406DEE"/>
</svg>
