<svg width="17" height="14" viewBox="0 0 17 14" fill="none" xmlns="http://www.w3.org/2000/svg">
<path d="M16.9292 6.45779C15.2128 2.47266 11.9839 0 8.50006 0C5.01625 0 1.78735 2.47266 0.0709378 6.45779C0.02415 6.565 0 6.68071 0 6.79768C0 6.91465 0.02415 7.03036 0.0709378 7.13756C1.78735 11.1227 5.01625 13.5954 8.50006 13.5954C11.9839 13.5954 15.2128 11.1227 16.9292 7.13756C16.976 7.03036 17.0001 6.91465 17.0001 6.79768C17.0001 6.68071 16.976 6.565 16.9292 6.45779ZM8.50006 11.8959C5.80648 11.8959 3.25735 9.9501 1.78735 6.79768C3.25735 3.64525 5.80648 1.69942 8.50006 1.69942C11.1936 1.69942 13.7428 3.64525 15.2128 6.79768C13.7428 9.9501 11.1936 11.8959 8.50006 11.8959ZM8.50006 3.39884C7.82783 3.39884 7.1707 3.59818 6.61176 3.97165C6.05283 4.34512 5.61719 4.87594 5.35994 5.497C5.10269 6.11805 5.03538 6.80145 5.16653 7.46076C5.29767 8.12007 5.62138 8.72568 6.09671 9.20102C6.57205 9.67635 7.17767 10.0001 7.83698 10.1312C8.49629 10.2624 9.17968 10.195 9.80074 9.93779C10.4218 9.68054 10.9526 9.24491 11.3261 8.68597C11.6996 8.12703 11.8989 7.4699 11.8989 6.79768C11.8989 5.89625 11.5408 5.03174 10.9034 4.39433C10.266 3.75693 9.40148 3.39884 8.50006 3.39884ZM8.50006 8.4971C8.16394 8.4971 7.83538 8.39743 7.55591 8.21069C7.27644 8.02396 7.05862 7.75854 6.93 7.44802C6.80137 7.13749 6.76772 6.79579 6.83329 6.46614C6.89886 6.13648 7.06072 5.83367 7.29839 5.59601C7.53605 5.35834 7.83886 5.19648 8.16852 5.13091C8.49817 5.06534 8.83987 5.09899 9.1504 5.22762C9.46092 5.35624 9.72634 5.57406 9.91307 5.85353C10.0998 6.133 10.1995 6.46156 10.1995 6.79768C10.1995 7.24839 10.0204 7.68064 9.70173 7.99935C9.38302 8.31805 8.95077 8.4971 8.50006 8.4971Z" fill="#73798C"/>
</svg>
