<svg width="34" height="34" viewBox="0 0 34 34" fill="none" xmlns="http://www.w3.org/2000/svg">
<path d="M26.3099 7.73812L21.4843 2.91251C21.3263 2.75325 21.1384 2.62685 20.9314 2.54058C20.7243 2.45432 20.5022 2.4099 20.2779 2.4099C20.0536 2.4099 19.8315 2.45432 19.6244 2.54058C19.4174 2.62685 19.2295 2.75325 19.0715 2.91251C18.755 3.23087 18.5774 3.66153 18.5774 4.11042C18.5774 4.55931 18.755 4.98997 19.0715 5.30832L22.6737 8.91054L8.91054 22.6737L5.30832 19.0715C4.98997 18.755 4.55931 18.5774 4.11042 18.5774C3.66153 18.5774 3.23087 18.755 2.91251 19.0715C2.75325 19.2295 2.62685 19.4174 2.54058 19.6244C2.45432 19.8315 2.4099 20.0536 2.4099 20.2779C2.4099 20.5022 2.45432 20.7243 2.54058 20.9314C2.62685 21.1384 2.75325 21.3263 2.91251 21.4843L7.68715 26.2589L12.4618 31.0336C12.6191 31.1941 12.8068 31.3219 13.0139 31.4094C13.221 31.4969 13.4434 31.5424 13.6682 31.5433C14.0057 31.5453 14.3361 31.4467 14.6174 31.2601C14.8986 31.0736 15.1179 30.8075 15.2473 30.4958C15.3767 30.1841 15.4104 29.8409 15.344 29.51C15.2776 29.1791 15.1142 28.8754 14.8746 28.6378L11.3233 25.0865L25.0865 11.3233L28.6887 14.9256C28.8472 15.0829 29.035 15.2074 29.2416 15.2921C29.4482 15.3769 29.6694 15.42 29.8926 15.4193C30.1159 15.4185 30.3368 15.3737 30.5428 15.2875C30.7488 15.2014 30.9357 15.0755 31.093 14.9171C31.2504 14.7586 31.3749 14.5708 31.4596 14.3642C31.5443 14.1576 31.5875 13.9364 31.5867 13.7131C31.586 13.4899 31.5412 13.269 31.455 13.063C31.3689 12.857 31.243 12.6701 31.0845 12.5128L26.3099 7.73812ZM2.91251 26.2759C2.59255 25.956 2.1586 25.7762 1.70611 25.7762C1.25362 25.7762 0.819666 25.956 0.499708 26.2759C0.17975 26.5959 3.3713e-09 27.0298 0 27.4823C-3.3713e-09 27.9348 0.17975 28.3688 0.499708 28.6887L5.30832 33.4974C5.46709 33.6548 5.65539 33.7794 5.86241 33.864C6.06943 33.9485 6.29111 33.9914 6.51473 33.9901C6.73835 33.9914 6.96002 33.9485 7.16705 33.864C7.37407 33.7794 7.56236 33.6548 7.72113 33.4974C7.88039 33.3394 8.0068 33.1515 8.09306 32.9444C8.17932 32.7373 8.22374 32.5153 8.22374 32.291C8.22374 32.0666 8.17932 31.8446 8.09306 31.6375C8.0068 31.4304 7.88039 31.2425 7.72113 31.0845L2.91251 26.2759ZM33.4974 5.30832L28.6887 0.499708C28.5303 0.341281 28.3422 0.21561 28.1352 0.12987C27.9282 0.0441297 27.7064 0 27.4823 0C27.2583 0 27.0364 0.0441297 26.8294 0.12987C26.6224 0.21561 26.4344 0.341281 26.2759 0.499708C26.1175 0.658135 25.9918 0.846215 25.9061 1.05321C25.8204 1.2602 25.7762 1.48206 25.7762 1.70611C25.7762 1.93016 25.8204 2.15202 25.9061 2.35901C25.9918 2.56601 26.1175 2.75409 26.2759 2.91251L31.0845 7.72113C31.2425 7.88039 31.4304 8.0068 31.6375 8.09306C31.8446 8.17932 32.0666 8.22374 32.291 8.22374C32.5153 8.22374 32.7373 8.17932 32.9444 8.09306C33.1515 8.0068 33.3394 7.88039 33.4974 7.72113C33.6566 7.56317 33.783 7.37524 33.8693 7.16818C33.9555 6.96113 34 6.73904 34 6.51473C34 6.29042 33.9555 6.06833 33.8693 5.86127C33.783 5.65421 33.6566 5.46628 33.4974 5.30832Z" fill="#73798C"/>
</svg>
