<svg width="34" height="34" viewBox="0 0 34 34" fill="none" xmlns="http://www.w3.org/2000/svg">
<path d="M32.2481 0.319408C31.0431 0.111853 29.823 0.00501743 28.6002 7.313e-06C24.4285 -0.00341277 20.3437 1.19284 16.8329 3.44617C13.313 1.22243 9.22886 0.0555339 5.06547 0.08406C3.84275 0.0890701 2.62257 0.195906 1.41758 0.40346C1.02288 0.471507 0.665444 0.678243 0.409642 0.986438C0.15384 1.29463 0.0164819 1.68403 0.0223046 2.08452V22.2572C0.0187044 22.5042 0.0695863 22.7489 0.17133 22.974C0.273074 23.1992 0.423179 23.3991 0.610965 23.5596C0.798751 23.7201 1.0196 23.8372 1.25781 23.9027C1.49601 23.9681 1.74571 23.9803 1.98914 23.9382C4.39812 23.5211 6.86622 23.5903 9.24805 24.1418C11.6299 24.6932 13.8773 25.7157 15.8578 27.1491L16.0596 27.2667H16.2445C16.4309 27.3444 16.6309 27.3844 16.8329 27.3844C17.0348 27.3844 17.2348 27.3444 17.4212 27.2667H17.6061L17.8079 27.1491C19.7746 25.6837 22.0156 24.628 24.3979 24.0447C26.7801 23.4614 29.2553 23.3623 31.6766 23.7533C31.92 23.7953 32.1697 23.7832 32.4079 23.7177C32.6461 23.6523 32.867 23.5352 33.0547 23.3747C33.2425 23.2142 33.3926 23.0142 33.4944 22.7891C33.5961 22.564 33.647 22.3193 33.6434 22.0723V1.8996C33.6259 1.51658 33.478 1.15104 33.2242 0.863629C32.9705 0.576214 32.626 0.38419 32.2481 0.319408ZM15.1518 22.6606C12.0417 21.0244 8.57975 20.1705 5.06547 20.1727C4.51072 20.1727 3.95597 20.1727 3.38442 20.1727V3.36212C3.9443 3.32985 4.50558 3.32985 5.06547 3.36212C8.65181 3.35815 12.1599 4.41058 15.1518 6.38802V22.6606ZM30.2813 20.2399C29.7097 20.2399 29.155 20.2399 28.6002 20.2399C25.086 20.2377 21.6241 21.0917 18.5139 22.7279V6.38802C21.5058 4.41058 25.0139 3.35815 28.6002 3.36212C29.1601 3.32985 29.7214 3.32985 30.2813 3.36212V20.2399ZM32.2481 27.2163C31.0431 27.0087 29.823 26.9019 28.6002 26.8969C24.4285 26.8935 20.3437 28.0897 16.8329 30.3431C13.322 28.0897 9.23724 26.8935 5.06547 26.8969C3.84275 26.9019 2.62257 27.0087 1.41758 27.2163C1.19875 27.251 0.988949 27.3287 0.800234 27.4448C0.611518 27.5608 0.447614 27.7131 0.317946 27.8928C0.188279 28.0724 0.095406 28.2759 0.044669 28.4916C-0.00606805 28.7073 -0.0136685 28.9309 0.0223046 29.1495C0.107734 29.586 0.362702 29.9709 0.731358 30.2199C1.10001 30.4688 1.5523 30.5614 1.98914 30.4775C4.39812 30.0604 6.86622 30.1296 9.24805 30.6811C11.6299 31.2325 13.8773 32.255 15.8578 33.6884C16.1426 33.8911 16.4834 34 16.8329 34C17.1824 34 17.5232 33.8911 17.8079 33.6884C19.7885 32.255 22.0358 31.2325 24.4177 30.6811C26.7995 30.1296 29.2676 30.0604 31.6766 30.4775C32.1134 30.5614 32.5657 30.4688 32.9344 30.2199C33.303 29.9709 33.558 29.586 33.6434 29.1495C33.6794 28.9309 33.6718 28.7073 33.621 28.4916C33.5703 28.2759 33.4774 28.0724 33.3478 27.8928C33.2181 27.7131 33.0542 27.5608 32.8655 27.4448C32.6768 27.3287 32.467 27.251 32.2481 27.2163Z" fill="#73798C"/>
</svg>
