<svg width="27" height="27" viewBox="0 0 27 27" fill="none" xmlns="http://www.w3.org/2000/svg">
<path d="M9.44997 24.8062H9.95622V24.2999V17.5499V17.0437H9.44997H2.69999H2.19374V17.5499V24.2999V24.8062H2.69999H9.44997ZM0.753377 26.2465L0.395405 26.6045L0.753376 26.2465C0.595144 26.0883 0.506248 25.8737 0.506248 25.6499V16.2C0.506248 15.9762 0.595143 15.7616 0.753376 15.6033C0.91161 15.4451 1.12622 15.3562 1.35 15.3562H10.8C11.0237 15.3562 11.2384 15.4451 11.3966 15.6033C11.5548 15.7616 11.6437 15.9762 11.6437 16.2V25.6499C11.6437 25.8737 11.5548 26.0883 11.3966 26.2465C11.2384 26.4048 11.0237 26.4937 10.8 26.4937H1.35C1.12622 26.4937 0.911609 26.4048 0.753377 26.2465ZM24.2999 9.95622H24.8062V9.44997V2.69999V2.19374H24.2999H17.5499H17.0437V2.69999V9.44997V9.95622H17.5499H24.2999ZM26.2465 0.753376L26.6039 0.396014L26.2465 0.753377C26.4048 0.911609 26.4937 1.12622 26.4937 1.35V10.8C26.4937 11.0237 26.4048 11.2384 26.2465 11.3966C26.0883 11.5548 25.8737 11.6437 25.6499 11.6437H16.2C15.9762 11.6437 15.7616 11.5548 15.6033 11.3966C15.4451 11.2384 15.3562 11.0237 15.3562 10.8V1.35C15.3562 1.12622 15.4451 0.91161 15.6033 0.753376C15.7616 0.595143 15.9762 0.506248 16.2 0.506248H25.6499C25.8737 0.506248 26.0883 0.595144 26.2465 0.753376ZM24.2999 24.8062H24.8062V24.2999V17.5499V17.0437H24.2999H17.5499H17.0437V17.5499V24.2999V24.8062H17.5499H24.2999ZM26.2465 26.2465L26.6045 26.6045L26.2465 26.2465C26.0883 26.4048 25.8737 26.4937 25.6499 26.4937H16.2C15.9762 26.4937 15.7616 26.4048 15.6033 26.2465C15.4451 26.0883 15.3562 25.8737 15.3562 25.6499V16.2C15.3562 15.9762 15.4451 15.7616 15.6033 15.6033C15.7616 15.4451 15.9762 15.3562 16.2 15.3562H25.6499C25.8737 15.3562 26.0883 15.4451 26.2465 15.6033C26.4048 15.7616 26.4937 15.9762 26.4937 16.2V25.6499C26.4937 25.8737 26.4048 26.0883 26.2465 26.2465ZM9.44997 9.95622H9.95622V9.44997V2.69999V2.19374H9.44997H2.69999H2.19374V2.69999V9.44997V9.95622H2.69999H9.44997ZM1.35 0.506248H10.8C11.0237 0.506248 11.2384 0.595143 11.3966 0.753376C11.5548 0.911609 11.6437 1.12622 11.6437 1.35V10.8C11.6437 11.0237 11.5548 11.2384 11.3966 11.3966C11.2384 11.5548 11.0237 11.6437 10.8 11.6437H1.35C1.12622 11.6437 0.911609 11.5548 0.753376 11.3966C0.595143 11.2384 0.506248 11.0237 0.506248 10.8V1.35C0.506248 1.12622 0.595143 0.91161 0.753376 0.753376C0.91161 0.595143 1.12622 0.506248 1.35 0.506248Z" fill="#73798C" stroke="#73798C"/>
</svg>
