<svg width="15" height="17" viewBox="0 0 15 17" fill="none" xmlns="http://www.w3.org/2000/svg">
<path d="M10.8333 10H4.16667C3.94565 10 3.73369 10.0878 3.57741 10.2441C3.42113 10.4004 3.33333 10.6123 3.33333 10.8333C3.33333 11.0543 3.42113 11.2663 3.57741 11.4226C3.73369 11.5789 3.94565 11.6667 4.16667 11.6667H10.8333C11.0543 11.6667 11.2663 11.5789 11.4226 11.4226C11.5789 11.2663 11.6667 11.0543 11.6667 10.8333C11.6667 10.6123 11.5789 10.4004 11.4226 10.2441C11.2663 10.0878 11.0543 10 10.8333 10ZM10.8333 6.66667H5.83333C5.61232 6.66667 5.40036 6.75446 5.24408 6.91074C5.0878 7.06703 5 7.27899 5 7.5C5 7.72101 5.0878 7.93298 5.24408 8.08926C5.40036 8.24554 5.61232 8.33333 5.83333 8.33333H10.8333C11.0543 8.33333 11.2663 8.24554 11.4226 8.08926C11.5789 7.93298 11.6667 7.72101 11.6667 7.5C11.6667 7.27899 11.5789 7.06703 11.4226 6.91074C11.2663 6.75446 11.0543 6.66667 10.8333 6.66667ZM14.1667 1.66667H11.6667V0.833333C11.6667 0.61232 11.5789 0.400358 11.4226 0.244078C11.2663 0.0877973 11.0543 0 10.8333 0C10.6123 0 10.4004 0.0877973 10.2441 0.244078C10.0878 0.400358 10 0.61232 10 0.833333V1.66667H8.33333V0.833333C8.33333 0.61232 8.24554 0.400358 8.08926 0.244078C7.93297 0.0877973 7.72101 0 7.5 0C7.27899 0 7.06702 0.0877973 6.91074 0.244078C6.75446 0.400358 6.66667 0.61232 6.66667 0.833333V1.66667H5V0.833333C5 0.61232 4.9122 0.400358 4.75592 0.244078C4.59964 0.0877973 4.38768 0 4.16667 0C3.94565 0 3.73369 0.0877973 3.57741 0.244078C3.42113 0.400358 3.33333 0.61232 3.33333 0.833333V1.66667H0.833333C0.61232 1.66667 0.400358 1.75446 0.244078 1.91074C0.0877973 2.06702 0 2.27899 0 2.5V14.1667C0 14.8297 0.263392 15.4656 0.732233 15.9344C1.20107 16.4033 1.83696 16.6667 2.5 16.6667H12.5C13.163 16.6667 13.7989 16.4033 14.2678 15.9344C14.7366 15.4656 15 14.8297 15 14.1667V2.5C15 2.27899 14.9122 2.06702 14.7559 1.91074C14.5996 1.75446 14.3877 1.66667 14.1667 1.66667ZM13.3333 14.1667C13.3333 14.3877 13.2455 14.5996 13.0893 14.7559C12.933 14.9122 12.721 15 12.5 15H2.5C2.27899 15 2.06702 14.9122 1.91074 14.7559C1.75446 14.5996 1.66667 14.3877 1.66667 14.1667V3.33333H3.33333V4.16667C3.33333 4.38768 3.42113 4.59964 3.57741 4.75592C3.73369 4.9122 3.94565 5 4.16667 5C4.38768 5 4.59964 4.9122 4.75592 4.75592C4.9122 4.59964 5 4.38768 5 4.16667V3.33333H6.66667V4.16667C6.66667 4.38768 6.75446 4.59964 6.91074 4.75592C7.06702 4.9122 7.27899 5 7.5 5C7.72101 5 7.93297 4.9122 8.08926 4.75592C8.24554 4.59964 8.33333 4.38768 8.33333 4.16667V3.33333H10V4.16667C10 4.38768 10.0878 4.59964 10.2441 4.75592C10.4004 4.9122 10.6123 5 10.8333 5C11.0543 5 11.2663 4.9122 11.4226 4.75592C11.5789 4.59964 11.6667 4.38768 11.6667 4.16667V3.33333H13.3333V14.1667Z" fill="#0E0F12"/>
</svg>
