<svg width="11" height="11" viewBox="0 0 11 11" fill="none" xmlns="http://www.w3.org/2000/svg">
<path d="M10.3125 4.81249H6.18749V0.687499C6.18749 0.274999 5.91249 0 5.49999 0C5.08749 0 4.81249 0.274999 4.81249 0.687499V4.81249H0.687499C0.274999 4.81249 0 5.08749 0 5.49999C0 5.91249 0.274999 6.18749 0.687499 6.18749H4.81249V10.3125C4.81249 10.725 5.08749 11 5.49999 11C5.91249 11 6.18749 10.725 6.18749 10.3125V6.18749H10.3125C10.725 6.18749 11 5.91249 11 5.49999C11 5.08749 10.725 4.81249 10.3125 4.81249Z" fill="#406DEE"/>
</svg>
