<svg width="27" height="24" viewBox="0 0 27 24" fill="none" xmlns="http://www.w3.org/2000/svg">
<path d="M18.1667 4V4.5H18.6667H22.6667C23.5949 4.5 24.4852 4.86875 25.1415 5.52513C25.7979 6.1815 26.1667 7.07174 26.1667 8V20C26.1667 20.9283 25.7979 21.8185 25.1415 22.4749C24.4852 23.1313 23.5949 23.5 22.6667 23.5H4C3.07174 23.5 2.1815 23.1313 1.52513 22.4749C0.868749 21.8185 0.5 20.9283 0.5 20V8C0.5 7.07174 0.868749 6.1815 1.52513 5.52513C2.1815 4.86875 3.07174 4.5 4 4.5H8H8.5V4V2.66667C8.5 2.09203 8.72827 1.54093 9.1346 1.1346L8.78105 0.781048L9.1346 1.1346C9.54093 0.728273 10.092 0.5 10.6667 0.5H16C16.5746 0.5 17.1257 0.728273 17.5321 1.1346C17.9384 1.54093 18.1667 2.09203 18.1667 2.66667V4ZM10.6667 2.16667H10.1667V2.66667V4V4.5H10.6667H16H16.5V4V2.66667V2.16667H16H10.6667ZM2.82932 12.0472L2.16667 11.8192V12.52V20C2.16667 20.4862 2.35982 20.9525 2.70364 21.2964C3.04745 21.6402 3.51377 21.8333 4 21.8333H22.6667C23.1529 21.8333 23.6192 21.6402 23.963 21.2964C24.3068 20.9525 24.5 20.4862 24.5 20V12.52V11.8263L23.8419 12.0457L17.6098 14.123C17.5183 14.1499 17.4236 14.1645 17.3283 14.1667H9.33333H9.29957L9.26611 14.1712C9.18391 14.1824 9.10076 14.1841 9.01828 14.1763L2.82932 12.0472ZM24.1581 10.181L24.5 10.067V9.70667V8C24.5 7.51377 24.3068 7.04746 23.963 6.70364L23.6095 7.05719L23.963 6.70364C23.6192 6.35982 23.1529 6.16667 22.6667 6.16667H4C3.51377 6.16667 3.04745 6.35982 2.70364 6.70364C2.35982 7.04745 2.16667 7.51377 2.16667 8V9.70667V10.067L2.50855 10.181L9.38855 12.4743L9.46553 12.5H9.54667H17.12H17.2011L17.2781 12.4743L24.1581 10.181Z" fill="#73798C" stroke="#73798C"/>
</svg>
