<svg width="17" height="19" viewBox="0 0 17 19" fill="none" xmlns="http://www.w3.org/2000/svg">
<path d="M8.50008 15.3001C8.6682 15.3001 8.83254 15.2503 8.97232 15.1569C9.11211 15.0635 9.22105 14.9307 9.28539 14.7754C9.34972 14.6201 9.36656 14.4492 9.33376 14.2843C9.30096 14.1194 9.22001 13.968 9.10113 13.8491C8.98225 13.7302 8.8308 13.6493 8.66591 13.6165C8.50103 13.5837 8.33012 13.6005 8.1748 13.6648C8.01948 13.7292 7.88673 13.8381 7.79333 13.9779C7.69993 14.1177 7.65008 14.282 7.65008 14.4501C7.65008 14.6756 7.73963 14.8918 7.89904 15.0512C8.05844 15.2106 8.27465 15.3001 8.50008 15.3001ZM12.7501 15.3001C12.9182 15.3001 13.0826 15.2503 13.2224 15.1569C13.3621 15.0635 13.4711 14.9307 13.5354 14.7754C13.5998 14.6201 13.6166 14.4492 13.5838 14.2843C13.551 14.1194 13.47 13.968 13.3512 13.8491C13.2323 13.7302 13.0808 13.6493 12.916 13.6165C12.7511 13.5837 12.5802 13.6005 12.4248 13.6648C12.2695 13.7292 12.1368 13.8381 12.0434 13.9779C11.95 14.1177 11.9001 14.282 11.9001 14.4501C11.9001 14.6756 11.9897 14.8918 12.1491 15.0512C12.3085 15.2106 12.5247 15.3001 12.7501 15.3001ZM12.7501 11.9001C12.9182 11.9001 13.0826 11.8503 13.2224 11.7569C13.3621 11.6635 13.4711 11.5307 13.5354 11.3754C13.5998 11.2201 13.6166 11.0492 13.5838 10.8843C13.551 10.7194 13.47 10.5679 13.3512 10.4491C13.2323 10.3302 13.0808 10.2492 12.916 10.2164C12.7511 10.1836 12.5802 10.2005 12.4248 10.2648C12.2695 10.3291 12.1368 10.4381 12.0434 10.5779C11.95 10.7177 11.9001 10.882 11.9001 11.0501C11.9001 11.2755 11.9897 11.4917 12.1491 11.6512C12.3085 11.8106 12.5247 11.9001 12.7501 11.9001ZM8.50008 11.9001C8.6682 11.9001 8.83254 11.8503 8.97232 11.7569C9.11211 11.6635 9.22105 11.5307 9.28539 11.3754C9.34972 11.2201 9.36656 11.0492 9.33376 10.8843C9.30096 10.7194 9.22001 10.5679 9.10113 10.4491C8.98225 10.3302 8.8308 10.2492 8.66591 10.2164C8.50103 10.1836 8.33012 10.2005 8.1748 10.2648C8.01948 10.3291 7.88673 10.4381 7.79333 10.5779C7.69993 10.7177 7.65008 10.882 7.65008 11.0501C7.65008 11.2755 7.73963 11.4917 7.89904 11.6512C8.05844 11.8106 8.27465 11.9001 8.50008 11.9001ZM14.4501 1.70002H13.6001V0.850008C13.6001 0.624572 13.5106 0.408369 13.3512 0.248962C13.1918 0.0895541 12.9756 0 12.7501 0C12.5247 0 12.3085 0.0895541 12.1491 0.248962C11.9897 0.408369 11.9001 0.624572 11.9001 0.850008V1.70002H5.10005V0.850008C5.10005 0.624572 5.0105 0.408369 4.85109 0.248962C4.69168 0.0895541 4.47548 0 4.25004 0C4.02461 0 3.8084 0.0895541 3.649 0.248962C3.48959 0.408369 3.40003 0.624572 3.40003 0.850008V1.70002H2.55002C1.87372 1.70002 1.22511 1.96868 0.746885 2.4469C0.268663 2.92512 0 3.57373 0 4.25004V16.1502C0 16.8265 0.268663 17.4751 0.746885 17.9533C1.22511 18.4315 1.87372 18.7002 2.55002 18.7002H14.4501C15.1265 18.7002 15.7751 18.4315 16.2533 17.9533C16.7315 17.4751 17.0002 16.8265 17.0002 16.1502V4.25004C17.0002 3.57373 16.7315 2.92512 16.2533 2.4469C15.7751 1.96868 15.1265 1.70002 14.4501 1.70002ZM15.3002 16.1502C15.3002 16.3756 15.2106 16.5918 15.0512 16.7512C14.8918 16.9106 14.6756 17.0002 14.4501 17.0002H2.55002C2.32459 17.0002 2.10839 16.9106 1.94898 16.7512C1.78957 16.5918 1.70002 16.3756 1.70002 16.1502V8.50008H15.3002V16.1502ZM15.3002 6.80007H1.70002V4.25004C1.70002 4.0246 1.78957 3.8084 1.94898 3.64899C2.10839 3.48959 2.32459 3.40003 2.55002 3.40003H3.40003V4.25004C3.40003 4.47548 3.48959 4.69168 3.649 4.85109C3.8084 5.01049 4.02461 5.10005 4.25004 5.10005C4.47548 5.10005 4.69168 5.01049 4.85109 4.85109C5.0105 4.69168 5.10005 4.47548 5.10005 4.25004V3.40003H11.9001V4.25004C11.9001 4.47548 11.9897 4.69168 12.1491 4.85109C12.3085 5.01049 12.5247 5.10005 12.7501 5.10005C12.9756 5.10005 13.1918 5.01049 13.3512 4.85109C13.5106 4.69168 13.6001 4.47548 13.6001 4.25004V3.40003H14.4501C14.6756 3.40003 14.8918 3.48959 15.0512 3.64899C15.2106 3.8084 15.3002 4.0246 15.3002 4.25004V6.80007ZM4.25004 11.9001C4.41816 11.9001 4.5825 11.8503 4.72228 11.7569C4.86206 11.6635 4.97101 11.5307 5.03535 11.3754C5.09968 11.2201 5.11652 11.0492 5.08372 10.8843C5.05092 10.7194 4.96996 10.5679 4.85109 10.4491C4.73221 10.3302 4.58076 10.2492 4.41587 10.2164C4.25098 10.1836 4.08008 10.2005 3.92476 10.2648C3.76944 10.3291 3.63669 10.4381 3.54329 10.5779C3.44989 10.7177 3.40003 10.882 3.40003 11.0501C3.40003 11.2755 3.48959 11.4917 3.649 11.6512C3.8084 11.8106 4.02461 11.9001 4.25004 11.9001ZM4.25004 15.3001C4.41816 15.3001 4.5825 15.2503 4.72228 15.1569C4.86206 15.0635 4.97101 14.9307 5.03535 14.7754C5.09968 14.6201 5.11652 14.4492 5.08372 14.2843C5.05092 14.1194 4.96996 13.968 4.85109 13.8491C4.73221 13.7302 4.58076 13.6493 4.41587 13.6165C4.25098 13.5837 4.08008 13.6005 3.92476 13.6648C3.76944 13.7292 3.63669 13.8381 3.54329 13.9779C3.44989 14.1177 3.40003 14.282 3.40003 14.4501C3.40003 14.6756 3.48959 14.8918 3.649 15.0512C3.8084 15.2106 4.02461 15.3001 4.25004 15.3001Z" fill="#0E0F12"/>
</svg>
