<svg width="34" height="30" viewBox="0 0 34 30" fill="none" xmlns="http://www.w3.org/2000/svg">
<path d="M28.3333 6.66667H26.6667V5C26.6667 3.67392 26.1399 2.40215 25.2022 1.46447C24.2645 0.526784 22.9928 0 21.6667 0H5C3.67392 0 2.40215 0.526784 1.46447 1.46447C0.526784 2.40215 0 3.67392 0 5V25C0 26.3261 0.526784 27.5979 1.46447 28.5355C2.40215 29.4732 3.67392 30 5 30H28.3333C29.6594 30 30.9312 29.4732 31.8689 28.5355C32.8066 27.5979 33.3333 26.3261 33.3333 25V11.6667C33.3333 10.3406 32.8066 9.06881 31.8689 8.13113C30.9312 7.19345 29.6594 6.66667 28.3333 6.66667ZM5 3.33333H21.6667C22.1087 3.33333 22.5326 3.50893 22.8452 3.82149C23.1577 4.13405 23.3333 4.55797 23.3333 5V6.66667H5C4.55797 6.66667 4.13405 6.49107 3.82149 6.17851C3.50893 5.86595 3.33333 5.44203 3.33333 5C3.33333 4.55797 3.50893 4.13405 3.82149 3.82149C4.13405 3.50893 4.55797 3.33333 5 3.33333ZM30 20H28.3333C27.8913 20 27.4674 19.8244 27.1548 19.5118C26.8423 19.1993 26.6667 18.7754 26.6667 18.3333C26.6667 17.8913 26.8423 17.4674 27.1548 17.1548C27.4674 16.8423 27.8913 16.6667 28.3333 16.6667H30V20ZM30 13.3333H28.3333C27.0073 13.3333 25.7355 13.8601 24.7978 14.7978C23.8601 15.7355 23.3333 17.0072 23.3333 18.3333C23.3333 19.6594 23.8601 20.9312 24.7978 21.8689C25.7355 22.8065 27.0073 23.3333 28.3333 23.3333H30V25C30 25.442 29.8244 25.866 29.5118 26.1785C29.1993 26.4911 28.7754 26.6667 28.3333 26.6667H5C4.55797 26.6667 4.13405 26.4911 3.82149 26.1785C3.50893 25.866 3.33333 25.442 3.33333 25V9.71667C3.86878 9.90503 4.43239 10.0008 5 10H28.3333C28.7754 10 29.1993 10.1756 29.5118 10.4882C29.8244 10.8007 30 11.2246 30 11.6667V13.3333Z" fill="#73798C"/>
</svg>
