<svg width="20" height="21" viewBox="0 0 20 21" fill="none" xmlns="http://www.w3.org/2000/svg">
<path d="M18.3658 10.8519C18.2027 10.6661 18.1127 10.4273 18.1127 10.1801C18.1127 9.93281 18.2027 9.69401 18.3658 9.50827L19.6687 8.04254C19.8123 7.88239 19.9014 7.68089 19.9234 7.46694C19.9453 7.25299 19.8989 7.03758 19.7909 6.85163L17.7551 3.32981C17.6481 3.14407 17.4853 2.99684 17.2897 2.90911C17.0941 2.82138 16.8759 2.79763 16.666 2.84123L14.7524 3.22802C14.5089 3.27834 14.2554 3.23778 14.0398 3.11402C13.8241 2.99026 13.6613 2.79185 13.5819 2.55623L12.961 0.693534C12.8927 0.491364 12.7626 0.315768 12.5891 0.191565C12.4155 0.0673613 12.2074 0.000833426 11.994 0.00138426H7.92252C7.70056 -0.0102011 7.4809 0.0511848 7.29711 0.176166C7.11331 0.301148 6.97548 0.482855 6.90465 0.693534L6.33465 2.55623C6.25525 2.79185 6.09237 2.99026 5.87672 3.11402C5.66108 3.23778 5.40759 3.27834 5.1641 3.22802L3.19962 2.84123C3.00067 2.81312 2.79786 2.84451 2.61673 2.93146C2.4356 3.0184 2.28425 3.15701 2.18175 3.32981L0.146014 6.85163C0.0352294 7.03551 -0.0145829 7.2497 0.00369847 7.4636C0.0219799 7.67749 0.107419 7.88013 0.247801 8.04254L1.54049 9.50827C1.70368 9.69401 1.79367 9.93281 1.79367 10.1801C1.79367 10.4273 1.70368 10.6661 1.54049 10.8519L0.247801 12.3176C0.107419 12.48 0.0219799 12.6826 0.00369847 12.8965C-0.0145829 13.1104 0.0352294 13.3246 0.146014 13.5085L2.18175 17.0303C2.28872 17.216 2.4516 17.3633 2.64717 17.451C2.84274 17.5387 3.06101 17.5625 3.27087 17.5189L5.18446 17.1321C5.42795 17.0818 5.68143 17.1223 5.89708 17.2461C6.11272 17.3699 6.27561 17.5683 6.35501 17.8039L6.9759 19.6666C7.04673 19.8773 7.18456 20.059 7.36836 20.1839C7.55216 20.3089 7.77181 20.3703 7.99377 20.3587H12.0652C12.2786 20.3593 12.4868 20.2928 12.6603 20.1686C12.8338 20.0443 12.9639 19.8688 13.0322 19.6666L13.6531 17.8039C13.7325 17.5683 13.8954 17.3699 14.111 17.2461C14.3267 17.1223 14.5802 17.0818 14.8237 17.1321L16.7373 17.5189C16.9471 17.5625 17.1654 17.5387 17.3609 17.451C17.5565 17.3633 17.7194 17.216 17.8264 17.0303L19.8621 13.5085C19.9702 13.3225 20.0166 13.1071 19.9946 12.8932C19.9727 12.6792 19.8835 12.4777 19.74 12.3176L18.3658 10.8519ZM16.8492 12.2158L17.6635 13.1319L16.3606 15.3915L15.1596 15.1472C14.4265 14.9974 13.6639 15.1219 13.0165 15.4972C12.3692 15.8725 11.8822 16.4724 11.6479 17.183L11.2611 18.323H8.65538L8.28895 17.1626C8.0547 16.452 7.56767 15.8521 6.92033 15.4768C6.27299 15.1016 5.5104 14.977 4.77731 15.1269L3.57623 15.3712L2.253 13.1217L3.06729 12.2056C3.56804 11.6458 3.84487 10.921 3.84487 10.1699C3.84487 9.41876 3.56804 8.69399 3.06729 8.13414L2.253 7.21806L3.55587 4.97876L4.75695 5.22304C5.49004 5.3729 6.25264 5.24837 6.89998 4.8731C7.54732 4.49783 8.03434 3.89794 8.26859 3.18731L8.65538 2.03712H11.2611L11.6479 3.19749C11.8822 3.90812 12.3692 4.50801 13.0165 4.88328C13.6639 5.25855 14.4265 5.38307 15.1596 5.23322L16.3606 4.98893L17.6635 7.2486L16.8492 8.16468C16.3541 8.72325 16.0807 9.44382 16.0807 10.1902C16.0807 10.9367 16.3541 11.6572 16.8492 12.2158ZM9.95826 6.10859C9.15299 6.10859 8.36582 6.34738 7.69627 6.79475C7.02672 7.24213 6.50487 7.87801 6.19671 8.62197C5.88855 9.36594 5.80792 10.1846 5.96502 10.9744C6.12212 11.7641 6.50989 12.4896 7.07929 13.059C7.6487 13.6284 8.37416 14.0162 9.16395 14.1733C9.95374 14.3304 10.7724 14.2498 11.5163 13.9416C12.2603 13.6334 12.8962 13.1116 13.3436 12.442C13.7909 11.7725 14.0297 10.9853 14.0297 10.1801C14.0297 9.10024 13.6008 8.06464 12.8372 7.30109C12.0737 6.53755 11.0381 6.10859 9.95826 6.10859ZM9.95826 12.2158C9.55563 12.2158 9.16204 12.0964 8.82726 11.8727C8.49249 11.649 8.23156 11.3311 8.07748 10.9591C7.9234 10.5871 7.88309 10.1778 7.96164 9.78291C8.04019 9.38801 8.23407 9.02528 8.51877 8.74058C8.80348 8.45587 9.16621 8.26199 9.5611 8.18344C9.956 8.10489 10.3653 8.1452 10.7373 8.29928C11.1093 8.45336 11.4272 8.71429 11.6509 9.04906C11.8746 9.38384 11.994 9.77743 11.994 10.1801C11.994 10.72 11.7795 11.2378 11.3977 11.6195C11.016 12.0013 10.4982 12.2158 9.95826 12.2158Z" fill="#73798C"/>
</svg>
