<svg width="17" height="9" viewBox="0 0 17 9" fill="none" xmlns="http://www.w3.org/2000/svg">
<path d="M5.09998 4.24998C5.09998 4.47541 5.18953 4.69161 5.34893 4.85102C5.50834 5.01042 5.72454 5.09998 5.94997 5.09998H11.0499C11.2754 5.09998 11.4916 5.01042 11.651 4.85102C11.8104 4.69161 11.8999 4.47541 11.8999 4.24998C11.8999 4.02455 11.8104 3.80835 11.651 3.64894C11.4916 3.48954 11.2754 3.39998 11.0499 3.39998H5.94997C5.72454 3.39998 5.50834 3.48954 5.34893 3.64894C5.18953 3.80835 5.09998 4.02455 5.09998 4.24998ZM6.79997 6.79997H4.24998C3.57368 6.79997 2.92508 6.53131 2.44687 6.05309C1.96865 5.57488 1.69999 4.92628 1.69999 4.24998C1.69999 3.57368 1.96865 2.92508 2.44687 2.44687C2.92508 1.96865 3.57368 1.69999 4.24998 1.69999H6.79997C7.0254 1.69999 7.2416 1.61044 7.401 1.45103C7.56041 1.29163 7.64996 1.07543 7.64996 0.849996C7.64996 0.624563 7.56041 0.408363 7.401 0.248958C7.2416 0.0895531 7.0254 0 6.79997 0H4.24998C3.12281 0 2.04182 0.447764 1.24479 1.24479C0.447764 2.04182 0 3.12281 0 4.24998C0 5.37714 0.447764 6.45814 1.24479 7.25517C2.04182 8.05219 3.12281 8.49996 4.24998 8.49996H6.79997C7.0254 8.49996 7.2416 8.41041 7.401 8.251C7.56041 8.0916 7.64996 7.8754 7.64996 7.64996C7.64996 7.42453 7.56041 7.20833 7.401 7.04893C7.2416 6.88952 7.0254 6.79997 6.79997 6.79997ZM12.7499 0H10.2C9.97452 0 9.75832 0.0895531 9.59891 0.248958C9.43951 0.408363 9.34995 0.624563 9.34995 0.849996C9.34995 1.07543 9.43951 1.29163 9.59891 1.45103C9.75832 1.61044 9.97452 1.69999 10.2 1.69999H12.7499C13.4262 1.69999 14.0748 1.96865 14.5531 2.44687C15.0313 2.92508 15.2999 3.57368 15.2999 4.24998C15.2999 4.92628 15.0313 5.57488 14.5531 6.05309C14.0748 6.53131 13.4262 6.79997 12.7499 6.79997H10.2C9.97452 6.79997 9.75832 6.88952 9.59891 7.04893C9.43951 7.20833 9.34995 7.42453 9.34995 7.64996C9.34995 7.8754 9.43951 8.0916 9.59891 8.251C9.75832 8.41041 9.97452 8.49996 10.2 8.49996H12.7499C13.8771 8.49996 14.9581 8.05219 15.7551 7.25517C16.5522 6.45814 16.9999 5.37714 16.9999 4.24998C16.9999 3.12281 16.5522 2.04182 15.7551 1.24479C14.9581 0.447764 13.8771 0 12.7499 0Z" fill="#0E0F12"/>
</svg>
