<svg width="14" height="14" viewBox="0 0 14 14" fill="none" xmlns="http://www.w3.org/2000/svg">
<path d="M5.54678 10.955L4.29943 12.1671C3.97235 12.4942 3.52874 12.6779 3.06618 12.6779C2.60362 12.6779 2.16 12.4942 1.83292 12.1671C1.50584 11.84 1.32209 11.3964 1.32209 10.9338C1.32209 10.4713 1.50584 10.0277 1.83292 9.70058L5.03234 6.49412C5.34637 6.17907 5.76949 5.99679 6.21416 5.98498C6.65883 5.97317 7.09103 6.13275 7.42133 6.4307L7.5059 6.50117C7.63953 6.632 7.81967 6.70439 8.00667 6.7024C8.19368 6.70042 8.37224 6.62423 8.50307 6.4906C8.6339 6.35696 8.70629 6.17683 8.70431 5.98982C8.70233 5.80281 8.62614 5.62425 8.4925 5.49342C8.45273 5.44199 8.41039 5.3926 8.36565 5.34543C7.76407 4.82205 6.98605 4.54688 6.18918 4.57566C5.39231 4.60445 4.63617 4.93504 4.07392 5.50047L0.832222 8.70693C0.281384 9.3065 -0.0165251 10.0957 0.000708056 10.9097C0.0179412 11.7237 0.348984 12.4996 0.924704 13.0753C1.50042 13.651 2.2763 13.9821 3.09031 13.9993C3.90432 14.0165 4.69351 13.7186 5.29308 13.1678L6.51224 11.9768C6.63262 11.8455 6.6988 11.6735 6.69745 11.4953C6.69611 11.3172 6.62734 11.1461 6.50499 11.0167C6.38265 10.8872 6.2158 10.8088 6.03802 10.7974C5.86024 10.7859 5.68472 10.8422 5.54678 10.955ZM13.0802 0.919805C12.4874 0.330667 11.6856 0 10.8498 0C10.014 0 9.21217 0.330667 8.61935 0.919805L7.40019 2.11078C7.27981 2.2421 7.21364 2.41414 7.21498 2.59229C7.21633 2.77043 7.28509 2.94145 7.40744 3.07095C7.52979 3.20044 7.69664 3.27879 7.87442 3.29023C8.0522 3.30167 8.22771 3.24536 8.36565 3.13262L9.58481 1.9205C9.91189 1.59342 10.3555 1.40967 10.8181 1.40967C11.2806 1.40967 11.7242 1.59342 12.0513 1.9205C12.3784 2.24758 12.5622 2.6912 12.5622 3.15376C12.5622 3.61632 12.3784 4.05993 12.0513 4.38701L8.85191 7.59348C8.53788 7.90853 8.11476 8.09081 7.67009 8.10262C7.22541 8.11442 6.79322 7.95485 6.46291 7.6569L6.37835 7.58643C6.24471 7.4556 6.06458 7.38321 5.87757 7.38519C5.69057 7.38718 5.51201 7.46337 5.38117 7.597C5.25034 7.73064 5.17795 7.91077 5.17994 8.09778C5.18192 8.28479 5.25811 8.46334 5.39174 8.59418C5.44293 8.64653 5.49705 8.69594 5.55383 8.74217C6.15613 9.26397 6.93382 9.53811 7.73021 9.50934C8.52659 9.48057 9.28247 9.15104 9.84556 8.58713L13.052 5.38067C13.6449 4.79158 13.9807 3.99183 13.9859 3.15605C13.9912 2.32027 13.6656 1.51634 13.0802 0.919805Z" fill="#73798C"/>
</svg>
