<svg width="17" height="16" viewBox="0 0 17 16" fill="none" xmlns="http://www.w3.org/2000/svg">
<path d="M14.3158 2.52633H9.02735L8.75787 1.68423C8.58318 1.1901 8.25913 0.762546 7.83063 0.460785C7.40213 0.159023 6.89039 -0.00200159 6.3663 1.87819e-05H2.52631C1.85629 1.87819e-05 1.21371 0.266183 0.739939 0.739958C0.266164 1.21373 0 1.85631 0 2.52633V13.4737C0 14.1437 0.266164 14.7863 0.739939 15.26C1.21371 15.7338 1.85629 16 2.52631 16H14.3158C14.9858 16 15.6283 15.7338 16.1021 15.26C16.5759 14.7863 16.8421 14.1437 16.8421 13.4737V5.05264C16.8421 4.38262 16.5759 3.74004 16.1021 3.26627C15.6283 2.79249 14.9858 2.52633 14.3158 2.52633ZM15.1579 13.4737C15.1579 13.697 15.0691 13.9112 14.9112 14.0691C14.7533 14.2271 14.5391 14.3158 14.3158 14.3158H2.52631C2.30297 14.3158 2.08878 14.2271 1.93085 14.0691C1.77293 13.9112 1.68421 13.697 1.68421 13.4737V2.52633C1.68421 2.30299 1.77293 2.0888 1.93085 1.93087C2.08878 1.77295 2.30297 1.68423 2.52631 1.68423H6.3663C6.54284 1.68377 6.71506 1.73881 6.85862 1.84157C7.00217 1.94432 7.10981 2.0896 7.1663 2.25686L7.62103 3.6379C7.67753 3.80516 7.78516 3.95044 7.92871 4.05319C8.07227 4.15595 8.24449 4.21099 8.42103 4.21053H14.3158C14.5391 4.21053 14.7533 4.29926 14.9112 4.45718C15.0691 4.61511 15.1579 4.8293 15.1579 5.05264V13.4737Z" fill="#0E0F12"/>
</svg>
